<svg xmlns="http://www.w3.org/2000/svg" xmlns:xlink="http://www.w3.org/1999/xlink" width="200" zoomAndPan="magnify" viewBox="0 0 150 52.499999" height="70" preserveAspectRatio="xMidYMid meet" version="1.0"><defs><g/></defs><g fill="#000000" fill-opacity="1"><g transform="translate(4.062317, 30.081271)"><g><path d="M 12.21875 -1.921875 C 12.257812 -1.421875 12.382812 -1.054688 12.59375 -0.828125 C 12.8125 -0.597656 13.0625 -0.472656 13.34375 -0.453125 L 13.25 0 C 12.46875 -0.0390625 11.359375 -0.0625 9.921875 -0.0625 C 8.367188 -0.0625 7.222656 -0.0390625 6.484375 0 L 6.578125 -0.453125 C 7.097656 -0.484375 7.503906 -0.546875 7.796875 -0.640625 C 8.085938 -0.742188 8.289062 -0.929688 8.40625 -1.203125 C 8.53125 -1.472656 8.578125 -1.867188 8.546875 -2.390625 L 8.34375 -6.140625 L 3.390625 -6.140625 L 1.375 -3.28125 C 0.882812 -2.59375 0.640625 -2.023438 0.640625 -1.578125 C 0.640625 -1.210938 0.800781 -0.941406 1.125 -0.765625 C 1.457031 -0.585938 1.9375 -0.484375 2.5625 -0.453125 L 2.453125 0 C 1.171875 -0.0390625 0.175781 -0.0625 -0.53125 -0.0625 C -1.09375 -0.0625 -1.617188 -0.0390625 -2.109375 0 L -2.015625 -0.453125 C -1.617188 -0.566406 -1.234375 -0.796875 -0.859375 -1.140625 C -0.484375 -1.492188 -0.00390625 -2.078125 0.578125 -2.890625 L 10.125 -16.34375 C 10.269531 -16.332031 10.472656 -16.328125 10.734375 -16.328125 C 11.003906 -16.328125 11.191406 -16.332031 11.296875 -16.34375 Z M 8.328125 -6.59375 L 8.015625 -12.671875 L 3.71875 -6.59375 Z M 8.328125 -6.59375 "/></g></g></g><g fill="#000000" fill-opacity="1"><g transform="translate(19.025529, 30.081271)"><g><path d="M 3.25 -1.953125 C 3.1875 -1.753906 3.15625 -1.5625 3.15625 -1.375 C 3.15625 -0.988281 3.316406 -0.796875 3.640625 -0.796875 C 4.117188 -0.796875 4.578125 -1.398438 5.015625 -2.609375 L 5.4375 -3.71875 L 5.875 -3.71875 L 5.296875 -2.046875 C 5.003906 -1.179688 4.582031 -0.566406 4.03125 -0.203125 C 3.476562 0.148438 2.882812 0.328125 2.25 0.328125 C 1.5625 0.328125 1.039062 0.148438 0.6875 -0.203125 C 0.332031 -0.566406 0.15625 -1.070312 0.15625 -1.71875 C 0.15625 -2.195312 0.25 -2.734375 0.4375 -3.328125 L 4.03125 -15.28125 C 4.113281 -15.5625 4.15625 -15.78125 4.15625 -15.9375 C 4.15625 -16.238281 4.035156 -16.457031 3.796875 -16.59375 C 3.554688 -16.726562 3.15625 -16.796875 2.59375 -16.796875 L 2.75 -17.28125 C 3.800781 -17.300781 4.75 -17.382812 5.59375 -17.53125 C 6.4375 -17.6875 7.257812 -17.914062 8.0625 -18.21875 Z M 3.25 -1.953125 "/></g></g></g><g fill="#000000" fill-opacity="1"><g transform="translate(25.899904, 30.081271)"><g><path d="M 9.21875 -12.171875 C 10.226562 -12.171875 10.734375 -11.472656 10.734375 -10.078125 C 10.734375 -8.703125 10.285156 -7.0625 9.390625 -5.15625 C 8.503906 -3.257812 7.445312 -1.570312 6.21875 -0.09375 C 5.4375 0.84375 4.570312 1.671875 3.625 2.390625 C 2.6875 3.109375 1.722656 3.632812 0.734375 3.96875 C 0.117188 4.195312 -0.421875 4.3125 -0.890625 4.3125 C -1.378906 4.3125 -1.765625 4.195312 -2.046875 3.96875 C -2.328125 3.738281 -2.46875 3.425781 -2.46875 3.03125 C -2.46875 2.613281 -2.316406 2.269531 -2.015625 2 C -1.722656 1.738281 -1.347656 1.609375 -0.890625 1.609375 C 0.00390625 1.609375 0.820312 2.132812 1.5625 3.1875 C 2.65625 2.65625 3.644531 1.953125 4.53125 1.078125 L 2.75 -9.875 C 2.675781 -10.300781 2.597656 -10.585938 2.515625 -10.734375 C 2.429688 -10.878906 2.3125 -10.953125 2.15625 -10.953125 C 1.988281 -10.953125 1.828125 -10.835938 1.671875 -10.609375 C 1.515625 -10.378906 1.316406 -9.929688 1.078125 -9.265625 L 0.671875 -8.140625 L 0.234375 -8.140625 L 0.796875 -9.8125 C 1.109375 -10.675781 1.492188 -11.285156 1.953125 -11.640625 C 2.421875 -11.992188 2.976562 -12.171875 3.625 -12.171875 C 4.28125 -12.171875 4.789062 -11.988281 5.15625 -11.625 C 5.519531 -11.257812 5.769531 -10.617188 5.90625 -9.703125 L 6.96875 -1.828125 C 7.644531 -2.796875 8.222656 -3.78125 8.703125 -4.78125 C 9.191406 -5.78125 9.550781 -6.738281 9.78125 -7.65625 C 9.15625 -7.988281 8.644531 -8.414062 8.25 -8.9375 C 7.851562 -9.457031 7.660156 -10.015625 7.671875 -10.609375 C 7.671875 -11.085938 7.804688 -11.46875 8.078125 -11.75 C 8.359375 -12.03125 8.738281 -12.171875 9.21875 -12.171875 Z M 9.21875 -12.171875 "/></g></g></g><g fill="#000000" fill-opacity="1"><g transform="translate(36.944727, 30.081271)"><g/></g></g><g fill="#000000" fill-opacity="1"><g transform="translate(42.787945, 30.081271)"><g><path d="M 17.78125 -16.546875 C 18.726562 -16.546875 19.484375 -16.304688 20.046875 -15.828125 C 20.617188 -15.347656 20.90625 -14.570312 20.90625 -13.5 C 20.90625 -12.34375 20.546875 -11.40625 19.828125 -10.6875 C 19.117188 -9.976562 18.023438 -9.359375 16.546875 -8.828125 C 15.859375 -8.566406 15.382812 -8.398438 15.125 -8.328125 C 15.78125 -7.617188 16.109375 -6.742188 16.109375 -5.703125 C 16.109375 -4.691406 15.789062 -3.722656 15.15625 -2.796875 C 14.53125 -1.878906 13.59375 -1.128906 12.34375 -0.546875 C 11.09375 0.0351562 9.582031 0.328125 7.8125 0.328125 C 5.675781 0.328125 3.953125 -0.109375 2.640625 -0.984375 C 1.328125 -1.859375 0.671875 -3.097656 0.671875 -4.703125 C 0.671875 -6.179688 1.226562 -7.46875 2.34375 -8.5625 C 3.457031 -9.664062 4.953125 -10.414062 6.828125 -10.8125 C 6.160156 -11.039062 5.65625 -11.363281 5.3125 -11.78125 C 4.976562 -12.207031 4.8125 -12.679688 4.8125 -13.203125 C 4.8125 -13.816406 5.023438 -14.335938 5.453125 -14.765625 C 5.878906 -15.203125 6.4375 -15.53125 7.125 -15.75 C 7.8125 -15.976562 8.53125 -16.09375 9.28125 -16.09375 C 10.21875 -16.09375 10.929688 -15.921875 11.421875 -15.578125 C 11.921875 -15.242188 12.171875 -14.800781 12.171875 -14.25 C 12.171875 -13.75 11.988281 -13.359375 11.625 -13.078125 C 11.257812 -12.796875 10.851562 -12.65625 10.40625 -12.65625 L 10.40625 -13.0625 C 10.769531 -13.0625 11.070312 -13.164062 11.3125 -13.375 C 11.550781 -13.582031 11.671875 -13.851562 11.671875 -14.1875 C 11.671875 -14.550781 11.515625 -14.84375 11.203125 -15.0625 C 10.898438 -15.289062 10.503906 -15.40625 10.015625 -15.40625 C 9.460938 -15.40625 8.945312 -15.265625 8.46875 -14.984375 C 8 -14.710938 7.617188 -14.320312 7.328125 -13.8125 C 7.046875 -13.3125 6.90625 -12.75 6.90625 -12.125 C 6.90625 -11.695312 6.988281 -11.304688 7.15625 -10.953125 C 7.707031 -11.046875 8.1875 -11.09375 8.59375 -11.09375 C 9.144531 -11.09375 9.421875 -10.929688 9.421875 -10.609375 C 9.421875 -10.460938 9.351562 -10.34375 9.21875 -10.25 C 9.082031 -10.164062 8.910156 -10.125 8.703125 -10.125 C 8.328125 -10.125 7.800781 -10.296875 7.125 -10.640625 C 6.3125 -10.328125 5.640625 -9.726562 5.109375 -8.84375 C 4.578125 -7.957031 4.3125 -6.972656 4.3125 -5.890625 C 4.3125 -4.515625 4.769531 -3.460938 5.6875 -2.734375 C 6.601562 -2.015625 7.867188 -1.65625 9.484375 -1.65625 C 10.566406 -1.65625 11.570312 -1.8125 12.5 -2.125 C 13.4375 -2.445312 14.191406 -2.925781 14.765625 -3.5625 C 15.335938 -4.207031 15.625 -4.988281 15.625 -5.90625 C 15.625 -6.832031 15.34375 -7.597656 14.78125 -8.203125 L 12.171875 -7.3125 C 11.691406 -7.175781 11.203125 -7.015625 10.703125 -6.828125 C 10.035156 -6.597656 9.507812 -6.328125 9.125 -6.015625 C 8.738281 -5.703125 8.546875 -5.316406 8.546875 -4.859375 C 8.546875 -4.429688 8.703125 -4.113281 9.015625 -3.90625 C 9.328125 -3.695312 9.710938 -3.59375 10.171875 -3.59375 C 10.773438 -3.59375 11.285156 -3.742188 11.703125 -4.046875 C 12.117188 -4.359375 12.410156 -4.679688 12.578125 -5.015625 L 12.921875 -4.84375 C 12.691406 -4.394531 12.335938 -4 11.859375 -3.65625 C 11.390625 -3.320312 10.796875 -3.15625 10.078125 -3.15625 C 9.316406 -3.15625 8.664062 -3.363281 8.125 -3.78125 C 7.59375 -4.207031 7.328125 -4.863281 7.328125 -5.75 C 7.328125 -7.582031 8.664062 -8.9375 11.34375 -9.8125 L 13.015625 -10.359375 C 15.191406 -11.066406 16.644531 -11.554688 17.375 -11.828125 C 18.257812 -12.148438 18.941406 -12.484375 19.421875 -12.828125 C 19.898438 -13.171875 20.140625 -13.65625 20.140625 -14.28125 C 20.140625 -14.84375 19.921875 -15.300781 19.484375 -15.65625 C 19.054688 -16.007812 18.519531 -16.1875 17.875 -16.1875 C 17.601562 -16.1875 17.382812 -16.140625 17.21875 -16.046875 C 17.882812 -15.765625 18.21875 -15.3125 18.21875 -14.6875 C 18.21875 -14.195312 18.007812 -13.800781 17.59375 -13.5 C 17.175781 -13.195312 16.695312 -13.046875 16.15625 -13.046875 C 15.664062 -13.046875 15.269531 -13.175781 14.96875 -13.4375 C 14.664062 -13.707031 14.515625 -14.054688 14.515625 -14.484375 C 14.515625 -14.898438 14.640625 -15.25 14.890625 -15.53125 C 15.140625 -15.820312 15.488281 -16.054688 15.9375 -16.234375 C 16.4375 -16.441406 17.050781 -16.546875 17.78125 -16.546875 Z M 17.78125 -16.546875 "/></g></g></g><g fill="#000000" fill-opacity="1"><g transform="translate(62.563218, 30.081271)"><g/></g></g><g fill="#000000" fill-opacity="1"><g transform="translate(68.406436, 30.081271)"><g><path d="M 7.796875 -0.140625 C 8.117188 -0.140625 8.4375 -0.179688 8.75 -0.265625 C 9.0625 -0.359375 9.332031 -0.476562 9.5625 -0.625 C 9.800781 -0.789062 9.984375 -0.988281 10.109375 -1.21875 C 10.242188 -1.457031 10.375 -1.816406 10.5 -2.296875 L 11.03125 -4.3125 C 11.164062 -4.8125 11.234375 -5.207031 11.234375 -5.5 C 11.234375 -5.882812 11.09375 -6.140625 10.8125 -6.265625 C 10.539062 -6.398438 10.039062 -6.484375 9.3125 -6.515625 L 9.421875 -6.96875 C 10.367188 -6.925781 11.664062 -6.90625 13.3125 -6.90625 C 14.75 -6.90625 15.828125 -6.925781 16.546875 -6.96875 L 16.4375 -6.515625 C 16.070312 -6.484375 15.800781 -6.421875 15.625 -6.328125 C 15.445312 -6.234375 15.289062 -6.0625 15.15625 -5.8125 C 15.03125 -5.5625 14.890625 -5.132812 14.734375 -4.53125 L 13.53125 0 L 13.0625 0 C 13.09375 -0.394531 13.054688 -0.710938 12.953125 -0.953125 C 12.847656 -1.191406 12.671875 -1.3125 12.421875 -1.3125 C 12.191406 -1.3125 11.960938 -1.265625 11.734375 -1.171875 C 11.503906 -1.078125 11.265625 -0.96875 11.015625 -0.84375 C 10.773438 -0.726562 10.601562 -0.640625 10.5 -0.578125 C 9.914062 -0.265625 9.351562 -0.0351562 8.8125 0.109375 C 8.28125 0.253906 7.734375 0.328125 7.171875 0.328125 C 5.171875 0.328125 3.617188 -0.128906 2.515625 -1.046875 C 1.421875 -1.972656 0.875 -3.265625 0.875 -4.921875 C 0.875 -6.703125 1.347656 -8.492188 2.296875 -10.296875 C 3.242188 -12.097656 4.554688 -13.585938 6.234375 -14.765625 C 7.910156 -15.953125 9.789062 -16.546875 11.875 -16.546875 C 12.789062 -16.546875 13.519531 -16.421875 14.0625 -16.171875 C 14.601562 -15.921875 15.125 -15.550781 15.625 -15.0625 C 15.769531 -14.925781 15.898438 -14.859375 16.015625 -14.859375 C 16.171875 -14.859375 16.320312 -14.960938 16.46875 -15.171875 C 16.613281 -15.390625 16.769531 -15.742188 16.9375 -16.234375 L 17.4375 -16.234375 C 16.9375 -14.910156 16.445312 -13.148438 15.96875 -10.953125 L 15.46875 -10.953125 C 15.550781 -11.609375 15.59375 -12.179688 15.59375 -12.671875 C 15.59375 -13.035156 15.566406 -13.34375 15.515625 -13.59375 C 15.472656 -13.851562 15.390625 -14.101562 15.265625 -14.34375 C 14.960938 -14.925781 14.507812 -15.367188 13.90625 -15.671875 C 13.300781 -15.984375 12.578125 -16.140625 11.734375 -16.140625 C 10.265625 -16.140625 8.984375 -15.472656 7.890625 -14.140625 C 6.796875 -12.816406 5.957031 -11.210938 5.375 -9.328125 C 4.800781 -7.453125 4.515625 -5.734375 4.515625 -4.171875 C 4.515625 -2.796875 4.785156 -1.78125 5.328125 -1.125 C 5.867188 -0.46875 6.691406 -0.140625 7.796875 -0.140625 Z M 7.796875 -0.140625 "/></g></g></g><g fill="#000000" fill-opacity="1"><g transform="translate(85.340298, 30.081271)"><g><path d="M 4.0625 -15.671875 C 4.070312 -16.304688 4.296875 -16.804688 4.734375 -17.171875 C 5.179688 -17.535156 5.734375 -17.71875 6.390625 -17.71875 C 6.929688 -17.71875 7.347656 -17.59375 7.640625 -17.34375 C 7.941406 -17.09375 8.09375 -16.742188 8.09375 -16.296875 C 8.09375 -15.679688 7.863281 -15.175781 7.40625 -14.78125 C 6.945312 -14.382812 6.378906 -14.1875 5.703125 -14.1875 C 5.148438 -14.1875 4.726562 -14.316406 4.4375 -14.578125 C 4.15625 -14.847656 4.03125 -15.210938 4.0625 -15.671875 Z M 3.1875 -9.90625 C 3.289062 -10.25 3.34375 -10.476562 3.34375 -10.59375 C 3.34375 -10.894531 3.207031 -11.046875 2.9375 -11.046875 C 2.65625 -11.046875 2.398438 -10.90625 2.171875 -10.625 C 1.941406 -10.34375 1.707031 -9.878906 1.46875 -9.234375 L 1.015625 -8.0625 L 0.578125 -8.0625 L 1.21875 -9.8125 C 1.78125 -11.382812 2.84375 -12.171875 4.40625 -12.171875 C 5.101562 -12.171875 5.613281 -12 5.9375 -11.65625 C 6.257812 -11.3125 6.421875 -10.863281 6.421875 -10.3125 C 6.421875 -9.875 6.335938 -9.425781 6.171875 -8.96875 L 3.765625 -1.953125 C 3.671875 -1.671875 3.625 -1.445312 3.625 -1.28125 C 3.625 -0.957031 3.773438 -0.796875 4.078125 -0.796875 C 4.304688 -0.796875 4.539062 -0.925781 4.78125 -1.1875 C 5.019531 -1.445312 5.269531 -1.921875 5.53125 -2.609375 L 5.9375 -3.71875 L 6.375 -3.71875 L 5.78125 -2.046875 C 5.238281 -0.460938 4.207031 0.328125 2.6875 0.328125 C 1.289062 0.328125 0.59375 -0.304688 0.59375 -1.578125 C 0.59375 -2.085938 0.707031 -2.671875 0.9375 -3.328125 Z M 3.1875 -9.90625 "/></g></g></g><g fill="#000000" fill-opacity="1"><g transform="translate(92.71879, 30.081271)"><g><path d="M 11.34375 -3.71875 L 11.78125 -3.71875 L 11.203125 -2.046875 C 10.898438 -1.179688 10.476562 -0.566406 9.9375 -0.203125 C 9.394531 0.148438 8.8125 0.328125 8.1875 0.328125 C 7.382812 0.328125 6.816406 0.0859375 6.484375 -0.390625 C 6.273438 -0.660156 6.171875 -1.039062 6.171875 -1.53125 C 6.171875 -1.925781 6.238281 -2.378906 6.375 -2.890625 C 5.851562 -1.753906 5.273438 -0.929688 4.640625 -0.421875 C 4.003906 0.078125 3.304688 0.328125 2.546875 0.328125 C 1.703125 0.328125 1.0625 0.078125 0.625 -0.421875 C 0.195312 -0.921875 -0.015625 -1.613281 -0.015625 -2.5 C -0.015625 -3.851562 0.34375 -5.289062 1.0625 -6.8125 C 1.789062 -8.332031 2.710938 -9.601562 3.828125 -10.625 C 4.941406 -11.65625 6.035156 -12.171875 7.109375 -12.171875 C 7.515625 -12.171875 7.84375 -12.046875 8.09375 -11.796875 C 8.351562 -11.554688 8.503906 -11.191406 8.546875 -10.703125 L 8.875 -11.828125 C 10.09375 -11.835938 11.195312 -11.953125 12.1875 -12.171875 L 9.1875 -1.953125 C 9.113281 -1.691406 9.078125 -1.476562 9.078125 -1.3125 C 9.078125 -0.96875 9.222656 -0.796875 9.515625 -0.796875 C 10.046875 -0.796875 10.519531 -1.398438 10.9375 -2.609375 Z M 8.296875 -9.8125 C 8.316406 -9.882812 8.328125 -10 8.328125 -10.15625 C 8.328125 -10.539062 8.257812 -10.832031 8.125 -11.03125 C 8 -11.226562 7.804688 -11.328125 7.546875 -11.328125 C 7.023438 -11.328125 6.429688 -10.859375 5.765625 -9.921875 C 5.097656 -8.992188 4.53125 -7.828125 4.0625 -6.421875 C 3.601562 -5.015625 3.375 -3.65625 3.375 -2.34375 C 3.375 -1.832031 3.421875 -1.46875 3.515625 -1.25 C 3.617188 -1.03125 3.785156 -0.921875 4.015625 -0.921875 C 4.347656 -0.921875 4.71875 -1.148438 5.125 -1.609375 C 5.53125 -2.078125 5.929688 -2.75 6.328125 -3.625 C 6.734375 -4.507812 7.09375 -5.554688 7.40625 -6.765625 L 7.296875 -6.21875 Z M 8.296875 -9.8125 "/></g></g></g><g fill="#000000" fill-opacity="1"><g transform="translate(105.505114, 30.081271)"><g><path d="M 12.8125 -3.71875 L 12.234375 -2.046875 C 11.691406 -0.460938 10.671875 0.328125 9.171875 0.328125 C 8.316406 0.328125 7.703125 0.0703125 7.328125 -0.4375 C 7.128906 -0.726562 7.03125 -1.085938 7.03125 -1.515625 C 7.03125 -2.003906 7.15625 -2.609375 7.40625 -3.328125 L 9.46875 -9.515625 C 9.601562 -9.921875 9.671875 -10.25 9.671875 -10.5 C 9.671875 -10.851562 9.523438 -11.03125 9.234375 -11.03125 C 8.773438 -11.03125 8.21875 -10.5625 7.5625 -9.625 C 6.914062 -8.695312 6.265625 -7.472656 5.609375 -5.953125 C 4.953125 -4.429688 4.378906 -2.828125 3.890625 -1.140625 L 3.59375 0 L 0.359375 0 L 3.140625 -9.90625 C 3.234375 -10.175781 3.28125 -10.421875 3.28125 -10.640625 C 3.28125 -10.910156 3.148438 -11.046875 2.890625 -11.046875 C 2.597656 -11.046875 2.335938 -10.910156 2.109375 -10.640625 C 1.890625 -10.378906 1.660156 -9.910156 1.421875 -9.234375 L 0.984375 -8.0625 L 0.546875 -8.0625 L 1.171875 -9.8125 C 1.460938 -10.65625 1.851562 -11.257812 2.34375 -11.625 C 2.832031 -11.988281 3.425781 -12.171875 4.125 -12.171875 C 5.4375 -12.171875 6.09375 -11.546875 6.09375 -10.296875 C 6.09375 -9.867188 6.03125 -9.425781 5.90625 -8.96875 L 5.203125 -6.1875 C 5.828125 -7.75 6.425781 -8.957031 7 -9.8125 C 7.570312 -10.675781 8.148438 -11.285156 8.734375 -11.640625 C 9.328125 -11.992188 9.984375 -12.171875 10.703125 -12.171875 C 12.078125 -12.171875 12.765625 -11.5625 12.765625 -10.34375 C 12.765625 -9.882812 12.664062 -9.335938 12.46875 -8.703125 L 10.21875 -1.953125 C 10.125 -1.671875 10.078125 -1.445312 10.078125 -1.28125 C 10.078125 -0.957031 10.222656 -0.796875 10.515625 -0.796875 C 10.765625 -0.796875 11.003906 -0.925781 11.234375 -1.1875 C 11.472656 -1.445312 11.71875 -1.921875 11.96875 -2.609375 L 12.375 -3.71875 Z M 12.8125 -3.71875 "/></g></g></g><g fill="#000000" fill-opacity="1"><g transform="translate(119.322594, 30.081271)"><g><path d="M 12.8125 -3.71875 L 12.234375 -2.046875 C 11.691406 -0.460938 10.671875 0.328125 9.171875 0.328125 C 8.316406 0.328125 7.703125 0.0703125 7.328125 -0.4375 C 7.128906 -0.726562 7.03125 -1.085938 7.03125 -1.515625 C 7.03125 -2.003906 7.15625 -2.609375 7.40625 -3.328125 L 9.46875 -9.515625 C 9.601562 -9.921875 9.671875 -10.25 9.671875 -10.5 C 9.671875 -10.851562 9.523438 -11.03125 9.234375 -11.03125 C 8.773438 -11.03125 8.21875 -10.5625 7.5625 -9.625 C 6.914062 -8.695312 6.265625 -7.472656 5.609375 -5.953125 C 4.953125 -4.429688 4.378906 -2.828125 3.890625 -1.140625 L 3.59375 0 L 0.359375 0 L 3.140625 -9.90625 C 3.234375 -10.175781 3.28125 -10.421875 3.28125 -10.640625 C 3.28125 -10.910156 3.148438 -11.046875 2.890625 -11.046875 C 2.597656 -11.046875 2.335938 -10.910156 2.109375 -10.640625 C 1.890625 -10.378906 1.660156 -9.910156 1.421875 -9.234375 L 0.984375 -8.0625 L 0.546875 -8.0625 L 1.171875 -9.8125 C 1.460938 -10.65625 1.851562 -11.257812 2.34375 -11.625 C 2.832031 -11.988281 3.425781 -12.171875 4.125 -12.171875 C 5.4375 -12.171875 6.09375 -11.546875 6.09375 -10.296875 C 6.09375 -9.867188 6.03125 -9.425781 5.90625 -8.96875 L 5.203125 -6.1875 C 5.828125 -7.75 6.425781 -8.957031 7 -9.8125 C 7.570312 -10.675781 8.148438 -11.285156 8.734375 -11.640625 C 9.328125 -11.992188 9.984375 -12.171875 10.703125 -12.171875 C 12.078125 -12.171875 12.765625 -11.5625 12.765625 -10.34375 C 12.765625 -9.882812 12.664062 -9.335938 12.46875 -8.703125 L 10.21875 -1.953125 C 10.125 -1.671875 10.078125 -1.445312 10.078125 -1.28125 C 10.078125 -0.957031 10.222656 -0.796875 10.515625 -0.796875 C 10.765625 -0.796875 11.003906 -0.925781 11.234375 -1.1875 C 11.472656 -1.445312 11.71875 -1.921875 11.96875 -2.609375 L 12.375 -3.71875 Z M 12.8125 -3.71875 "/></g></g></g><g fill="#000000" fill-opacity="1"><g transform="translate(133.140075, 30.081271)"><g><path d="M 11.34375 -3.71875 L 11.78125 -3.71875 L 11.203125 -2.046875 C 10.898438 -1.179688 10.476562 -0.566406 9.9375 -0.203125 C 9.394531 0.148438 8.8125 0.328125 8.1875 0.328125 C 7.382812 0.328125 6.816406 0.0859375 6.484375 -0.390625 C 6.273438 -0.660156 6.171875 -1.039062 6.171875 -1.53125 C 6.171875 -1.925781 6.238281 -2.378906 6.375 -2.890625 C 5.851562 -1.753906 5.273438 -0.929688 4.640625 -0.421875 C 4.003906 0.078125 3.304688 0.328125 2.546875 0.328125 C 1.703125 0.328125 1.0625 0.078125 0.625 -0.421875 C 0.195312 -0.921875 -0.015625 -1.613281 -0.015625 -2.5 C -0.015625 -3.851562 0.34375 -5.289062 1.0625 -6.8125 C 1.789062 -8.332031 2.710938 -9.601562 3.828125 -10.625 C 4.941406 -11.65625 6.035156 -12.171875 7.109375 -12.171875 C 7.515625 -12.171875 7.84375 -12.046875 8.09375 -11.796875 C 8.351562 -11.554688 8.503906 -11.191406 8.546875 -10.703125 L 8.875 -11.828125 C 10.09375 -11.835938 11.195312 -11.953125 12.1875 -12.171875 L 9.1875 -1.953125 C 9.113281 -1.691406 9.078125 -1.476562 9.078125 -1.3125 C 9.078125 -0.96875 9.222656 -0.796875 9.515625 -0.796875 C 10.046875 -0.796875 10.519531 -1.398438 10.9375 -2.609375 Z M 8.296875 -9.8125 C 8.316406 -9.882812 8.328125 -10 8.328125 -10.15625 C 8.328125 -10.539062 8.257812 -10.832031 8.125 -11.03125 C 8 -11.226562 7.804688 -11.328125 7.546875 -11.328125 C 7.023438 -11.328125 6.429688 -10.859375 5.765625 -9.921875 C 5.097656 -8.992188 4.53125 -7.828125 4.0625 -6.421875 C 3.601562 -5.015625 3.375 -3.65625 3.375 -2.34375 C 3.375 -1.832031 3.421875 -1.46875 3.515625 -1.25 C 3.617188 -1.03125 3.785156 -0.921875 4.015625 -0.921875 C 4.347656 -0.921875 4.71875 -1.148438 5.125 -1.609375 C 5.53125 -2.078125 5.929688 -2.75 6.328125 -3.625 C 6.734375 -4.507812 7.09375 -5.554688 7.40625 -6.765625 L 7.296875 -6.21875 Z M 8.296875 -9.8125 "/></g></g></g><g fill="#000000" fill-opacity="1"><g transform="translate(36.344705, 44.669832)"><g><path d="M 3.796875 -7.859375 C 4.109375 -7.859375 4.398438 -7.800781 4.671875 -7.6875 C 4.941406 -7.570312 5.175781 -7.410156 5.375 -7.203125 C 5.582031 -7.003906 5.742188 -6.769531 5.859375 -6.5 C 5.984375 -6.238281 6.046875 -5.953125 6.046875 -5.640625 C 6.046875 -5.328125 5.984375 -5.03125 5.859375 -4.75 C 5.742188 -4.476562 5.582031 -4.242188 5.375 -4.046875 C 5.175781 -3.847656 4.941406 -3.691406 4.671875 -3.578125 C 4.398438 -3.460938 4.109375 -3.40625 3.796875 -3.40625 L 1.75 -3.390625 L 1.75 0 L 0.59375 0 L 0.59375 -7.859375 Z M 3.796875 -4.484375 C 3.953125 -4.484375 4.097656 -4.515625 4.234375 -4.578125 C 4.367188 -4.640625 4.488281 -4.722656 4.59375 -4.828125 C 4.695312 -4.929688 4.773438 -5.050781 4.828125 -5.1875 C 4.890625 -5.332031 4.921875 -5.488281 4.921875 -5.65625 C 4.921875 -5.820312 4.890625 -5.972656 4.828125 -6.109375 C 4.773438 -6.253906 4.695312 -6.378906 4.59375 -6.484375 C 4.488281 -6.585938 4.367188 -6.671875 4.234375 -6.734375 C 4.097656 -6.796875 3.953125 -6.828125 3.796875 -6.828125 L 1.75 -6.828125 L 1.75 -4.484375 Z M 3.796875 -4.484375 "/></g></g></g><g fill="#000000" fill-opacity="1"><g transform="translate(42.803373, 44.669832)"><g><path d="M 1.75 -8.09375 L 1.75 0 L 0.671875 0 L 0.671875 -8.09375 Z M 1.75 -8.09375 "/></g></g></g><g fill="#000000" fill-opacity="1"><g transform="translate(45.156016, 44.669832)"><g><path d="M 5.65625 -5.3125 L 5.65625 0 L 4.75 0 L 4.578125 -0.609375 C 4.390625 -0.367188 4.148438 -0.179688 3.859375 -0.046875 C 3.578125 0.078125 3.289062 0.140625 3 0.140625 C 2.625 0.140625 2.273438 0.0664062 1.953125 -0.078125 C 1.628906 -0.222656 1.347656 -0.421875 1.109375 -0.671875 C 0.867188 -0.921875 0.675781 -1.21875 0.53125 -1.5625 C 0.394531 -1.90625 0.328125 -2.269531 0.328125 -2.65625 C 0.328125 -3.039062 0.394531 -3.398438 0.53125 -3.734375 C 0.675781 -4.078125 0.867188 -4.375 1.109375 -4.625 C 1.347656 -4.875 1.628906 -5.070312 1.953125 -5.21875 C 2.273438 -5.363281 2.625 -5.4375 3 -5.4375 C 3.289062 -5.4375 3.570312 -5.378906 3.84375 -5.265625 C 4.125 -5.148438 4.367188 -4.96875 4.578125 -4.71875 L 4.75 -5.3125 Z M 3 -0.828125 C 3.207031 -0.828125 3.40625 -0.875 3.59375 -0.96875 C 3.789062 -1.0625 3.957031 -1.191406 4.09375 -1.359375 C 4.238281 -1.523438 4.351562 -1.71875 4.4375 -1.9375 C 4.519531 -2.164062 4.5625 -2.40625 4.5625 -2.65625 C 4.5625 -2.90625 4.519531 -3.140625 4.4375 -3.359375 C 4.351562 -3.578125 4.238281 -3.769531 4.09375 -3.9375 C 3.957031 -4.101562 3.789062 -4.234375 3.59375 -4.328125 C 3.40625 -4.429688 3.207031 -4.484375 3 -4.484375 C 2.78125 -4.484375 2.570312 -4.429688 2.375 -4.328125 C 2.1875 -4.234375 2.019531 -4.101562 1.875 -3.9375 C 1.738281 -3.769531 1.628906 -3.578125 1.546875 -3.359375 C 1.472656 -3.140625 1.4375 -2.90625 1.4375 -2.65625 C 1.4375 -2.40625 1.472656 -2.164062 1.546875 -1.9375 C 1.628906 -1.71875 1.738281 -1.523438 1.875 -1.359375 C 2.019531 -1.191406 2.1875 -1.0625 2.375 -0.96875 C 2.570312 -0.875 2.78125 -0.828125 3 -0.828125 Z M 3 -0.828125 "/></g></g></g><g fill="#000000" fill-opacity="1"><g transform="translate(51.292851, 44.669832)"><g><path d="M 2.359375 -0.59375 L 0.109375 -5.3125 L 1.3125 -5.3125 L 2.953125 -1.859375 L 4.5625 -5.3125 L 5.75 -5.3125 L 2.3125 2.125 L 1.125 2.125 Z M 2.359375 -0.59375 "/></g></g></g><g fill="#000000" fill-opacity="1"><g transform="translate(57.229944, 44.669832)"><g/></g></g><g fill="#000000" fill-opacity="1"><g transform="translate(60.126359, 44.669832)"><g><path d="M 4.265625 -7.96875 C 4.796875 -7.96875 5.296875 -7.859375 5.765625 -7.640625 C 6.242188 -7.429688 6.660156 -7.144531 7.015625 -6.78125 C 7.367188 -6.414062 7.648438 -5.988281 7.859375 -5.5 C 8.066406 -5.007812 8.171875 -4.488281 8.171875 -3.9375 C 8.171875 -3.382812 8.066406 -2.863281 7.859375 -2.375 C 7.648438 -1.882812 7.367188 -1.457031 7.015625 -1.09375 C 6.660156 -0.726562 6.242188 -0.4375 5.765625 -0.21875 C 5.296875 -0.0078125 4.796875 0.09375 4.265625 0.09375 C 3.734375 0.09375 3.226562 -0.0078125 2.75 -0.21875 C 2.28125 -0.4375 1.867188 -0.726562 1.515625 -1.09375 C 1.160156 -1.457031 0.878906 -1.882812 0.671875 -2.375 C 0.472656 -2.863281 0.375 -3.382812 0.375 -3.9375 C 0.375 -4.488281 0.472656 -5.007812 0.671875 -5.5 C 0.878906 -5.988281 1.160156 -6.414062 1.515625 -6.78125 C 1.867188 -7.144531 2.28125 -7.429688 2.75 -7.640625 C 3.226562 -7.859375 3.734375 -7.96875 4.265625 -7.96875 Z M 4.265625 -1 C 4.648438 -1 5.003906 -1.070312 5.328125 -1.21875 C 5.660156 -1.375 5.945312 -1.582031 6.1875 -1.84375 C 6.4375 -2.113281 6.628906 -2.425781 6.765625 -2.78125 C 6.910156 -3.144531 6.984375 -3.53125 6.984375 -3.9375 C 6.984375 -4.34375 6.910156 -4.722656 6.765625 -5.078125 C 6.628906 -5.429688 6.4375 -5.738281 6.1875 -6 C 5.945312 -6.269531 5.660156 -6.476562 5.328125 -6.625 C 5.003906 -6.78125 4.648438 -6.859375 4.265625 -6.859375 C 3.890625 -6.859375 3.535156 -6.78125 3.203125 -6.625 C 2.878906 -6.476562 2.59375 -6.269531 2.34375 -6 C 2.101562 -5.738281 1.910156 -5.429688 1.765625 -5.078125 C 1.617188 -4.722656 1.546875 -4.34375 1.546875 -3.9375 C 1.546875 -3.53125 1.617188 -3.144531 1.765625 -2.78125 C 1.910156 -2.425781 2.101562 -2.113281 2.34375 -1.84375 C 2.59375 -1.582031 2.878906 -1.375 3.203125 -1.21875 C 3.535156 -1.070312 3.890625 -1 4.265625 -1 Z M 4.265625 -1 "/></g></g></g><g fill="#000000" fill-opacity="1"><g transform="translate(68.638033, 44.669832)"><g><path d="M 3.828125 -4.328125 C 3.773438 -4.347656 3.722656 -4.367188 3.671875 -4.390625 C 3.628906 -4.410156 3.578125 -4.425781 3.515625 -4.4375 C 3.453125 -4.445312 3.390625 -4.453125 3.328125 -4.453125 C 3.109375 -4.453125 2.90625 -4.414062 2.71875 -4.34375 C 2.539062 -4.28125 2.382812 -4.1875 2.25 -4.0625 C 2.113281 -3.945312 2.003906 -3.8125 1.921875 -3.65625 C 1.847656 -3.5 1.8125 -3.332031 1.8125 -3.15625 L 1.8125 0 L 0.734375 0 L 0.734375 -5.3125 L 1.59375 -5.3125 L 1.8125 -4.71875 C 1.957031 -4.9375 2.148438 -5.109375 2.390625 -5.234375 C 2.628906 -5.367188 2.929688 -5.4375 3.296875 -5.4375 C 3.535156 -5.4375 3.804688 -5.40625 4.109375 -5.34375 Z M 3.828125 -4.328125 "/></g></g></g><g fill="#000000" fill-opacity="1"><g transform="translate(72.832831, 44.669832)"><g><path d="M 3.046875 -0.265625 C 2.671875 -0.265625 2.328125 -0.332031 2.015625 -0.46875 C 1.703125 -0.601562 1.429688 -0.789062 1.203125 -1.03125 C 0.972656 -1.269531 0.796875 -1.546875 0.671875 -1.859375 C 0.546875 -2.179688 0.484375 -2.519531 0.484375 -2.875 C 0.484375 -3.226562 0.546875 -3.5625 0.671875 -3.875 C 0.796875 -4.1875 0.972656 -4.457031 1.203125 -4.6875 C 1.429688 -4.914062 1.703125 -5.097656 2.015625 -5.234375 C 2.328125 -5.367188 2.671875 -5.4375 3.046875 -5.4375 C 3.410156 -5.4375 3.726562 -5.378906 4 -5.265625 C 4.28125 -5.160156 4.519531 -5.003906 4.71875 -4.796875 L 4.953125 -5.3125 L 5.796875 -5.3125 C 5.796875 -5.289062 5.796875 -5.265625 5.796875 -5.234375 C 5.796875 -5.203125 5.796875 -5.132812 5.796875 -5.03125 C 5.796875 -4.9375 5.796875 -4.800781 5.796875 -4.625 C 5.796875 -4.445312 5.796875 -4.203125 5.796875 -3.890625 C 5.796875 -3.578125 5.796875 -3.1875 5.796875 -2.71875 C 5.796875 -2.257812 5.796875 -1.695312 5.796875 -1.03125 C 5.796875 -0.8125 5.785156 -0.59375 5.765625 -0.375 C 5.753906 -0.164062 5.722656 0.03125 5.671875 0.21875 C 5.628906 0.414062 5.5625 0.601562 5.46875 0.78125 C 5.382812 0.96875 5.265625 1.144531 5.109375 1.3125 C 4.804688 1.625 4.46875 1.832031 4.09375 1.9375 C 3.71875 2.050781 3.328125 2.109375 2.921875 2.109375 C 2.566406 2.109375 2.226562 2.0625 1.90625 1.96875 C 1.59375 1.882812 1.3125 1.769531 1.0625 1.625 L 1.0625 0.421875 C 1.207031 0.640625 1.4375 0.8125 1.75 0.9375 C 2.070312 1.070312 2.429688 1.140625 2.828125 1.140625 C 3.097656 1.140625 3.347656 1.101562 3.578125 1.03125 C 3.804688 0.96875 4.003906 0.863281 4.171875 0.71875 C 4.335938 0.570312 4.46875 0.382812 4.5625 0.15625 C 4.664062 -0.0703125 4.71875 -0.347656 4.71875 -0.671875 L 4.71875 -0.875 C 4.632812 -0.789062 4.523438 -0.710938 4.390625 -0.640625 C 4.265625 -0.566406 4.125 -0.5 3.96875 -0.4375 C 3.820312 -0.382812 3.664062 -0.34375 3.5 -0.3125 C 3.34375 -0.28125 3.191406 -0.265625 3.046875 -0.265625 Z M 3.140625 -4.453125 C 2.921875 -4.453125 2.710938 -4.410156 2.515625 -4.328125 C 2.328125 -4.253906 2.160156 -4.144531 2.015625 -4 C 1.878906 -3.851562 1.769531 -3.679688 1.6875 -3.484375 C 1.601562 -3.296875 1.5625 -3.09375 1.5625 -2.875 C 1.5625 -2.65625 1.601562 -2.445312 1.6875 -2.25 C 1.769531 -2.050781 1.878906 -1.878906 2.015625 -1.734375 C 2.160156 -1.585938 2.328125 -1.472656 2.515625 -1.390625 C 2.710938 -1.304688 2.921875 -1.265625 3.140625 -1.265625 C 3.359375 -1.265625 3.5625 -1.296875 3.75 -1.359375 C 3.9375 -1.429688 4.097656 -1.53125 4.234375 -1.65625 C 4.378906 -1.789062 4.492188 -1.957031 4.578125 -2.15625 C 4.660156 -2.363281 4.703125 -2.601562 4.703125 -2.875 C 4.703125 -3.164062 4.660156 -3.410156 4.578125 -3.609375 C 4.492188 -3.816406 4.378906 -3.984375 4.234375 -4.109375 C 4.097656 -4.234375 3.9375 -4.320312 3.75 -4.375 C 3.5625 -4.425781 3.359375 -4.453125 3.140625 -4.453125 Z M 3.140625 -4.453125 "/></g></g></g><g fill="#000000" fill-opacity="1"><g transform="translate(79.39137, 44.669832)"><g><path d="M 5.65625 -5.3125 L 5.65625 0 L 4.75 0 L 4.578125 -0.609375 C 4.390625 -0.367188 4.148438 -0.179688 3.859375 -0.046875 C 3.578125 0.078125 3.289062 0.140625 3 0.140625 C 2.625 0.140625 2.273438 0.0664062 1.953125 -0.078125 C 1.628906 -0.222656 1.347656 -0.421875 1.109375 -0.671875 C 0.867188 -0.921875 0.675781 -1.21875 0.53125 -1.5625 C 0.394531 -1.90625 0.328125 -2.269531 0.328125 -2.65625 C 0.328125 -3.039062 0.394531 -3.398438 0.53125 -3.734375 C 0.675781 -4.078125 0.867188 -4.375 1.109375 -4.625 C 1.347656 -4.875 1.628906 -5.070312 1.953125 -5.21875 C 2.273438 -5.363281 2.625 -5.4375 3 -5.4375 C 3.289062 -5.4375 3.570312 -5.378906 3.84375 -5.265625 C 4.125 -5.148438 4.367188 -4.96875 4.578125 -4.71875 L 4.75 -5.3125 Z M 3 -0.828125 C 3.207031 -0.828125 3.40625 -0.875 3.59375 -0.96875 C 3.789062 -1.0625 3.957031 -1.191406 4.09375 -1.359375 C 4.238281 -1.523438 4.351562 -1.71875 4.4375 -1.9375 C 4.519531 -2.164062 4.5625 -2.40625 4.5625 -2.65625 C 4.5625 -2.90625 4.519531 -3.140625 4.4375 -3.359375 C 4.351562 -3.578125 4.238281 -3.769531 4.09375 -3.9375 C 3.957031 -4.101562 3.789062 -4.234375 3.59375 -4.328125 C 3.40625 -4.429688 3.207031 -4.484375 3 -4.484375 C 2.78125 -4.484375 2.570312 -4.429688 2.375 -4.328125 C 2.1875 -4.234375 2.019531 -4.101562 1.875 -3.9375 C 1.738281 -3.769531 1.628906 -3.578125 1.546875 -3.359375 C 1.472656 -3.140625 1.4375 -2.90625 1.4375 -2.65625 C 1.4375 -2.40625 1.472656 -2.164062 1.546875 -1.9375 C 1.628906 -1.71875 1.738281 -1.523438 1.875 -1.359375 C 2.019531 -1.191406 2.1875 -1.0625 2.375 -0.96875 C 2.570312 -0.875 2.78125 -0.828125 3 -0.828125 Z M 3 -0.828125 "/></g></g></g><g fill="#000000" fill-opacity="1"><g transform="translate(85.528205, 44.669832)"><g><path d="M 1.671875 0 L 0.59375 0 L 0.59375 -5.3125 L 1.453125 -5.3125 L 1.671875 -4.84375 C 1.847656 -5.019531 2.0625 -5.160156 2.3125 -5.265625 C 2.570312 -5.378906 2.847656 -5.4375 3.140625 -5.4375 C 3.328125 -5.4375 3.539062 -5.40625 3.78125 -5.34375 C 4.03125 -5.289062 4.257812 -5.179688 4.46875 -5.015625 C 4.6875 -4.847656 4.863281 -4.617188 5 -4.328125 C 5.144531 -4.046875 5.21875 -3.675781 5.21875 -3.21875 L 5.21875 0 L 4.203125 0 L 4.203125 -3.234375 C 4.203125 -3.460938 4.164062 -3.65625 4.09375 -3.8125 C 4.03125 -3.96875 3.941406 -4.09375 3.828125 -4.1875 C 3.710938 -4.289062 3.582031 -4.359375 3.4375 -4.390625 C 3.289062 -4.429688 3.140625 -4.453125 2.984375 -4.453125 C 2.867188 -4.453125 2.734375 -4.429688 2.578125 -4.390625 C 2.429688 -4.347656 2.289062 -4.273438 2.15625 -4.171875 C 2.019531 -4.078125 1.90625 -3.953125 1.8125 -3.796875 C 1.71875 -3.648438 1.671875 -3.460938 1.671875 -3.234375 Z M 1.671875 0 "/></g></g></g><g fill="#000000" fill-opacity="1"><g transform="translate(91.454199, 44.669832)"><g><path d="M 1.734375 0 L 0.671875 0 L 0.671875 -5.3125 L 1.734375 -5.3125 Z M 1.203125 -6.46875 C 1.003906 -6.46875 0.835938 -6.535156 0.703125 -6.671875 C 0.578125 -6.804688 0.515625 -6.972656 0.515625 -7.171875 C 0.515625 -7.359375 0.578125 -7.519531 0.703125 -7.65625 C 0.835938 -7.789062 1.003906 -7.859375 1.203125 -7.859375 C 1.390625 -7.859375 1.550781 -7.789062 1.6875 -7.65625 C 1.820312 -7.519531 1.890625 -7.359375 1.890625 -7.171875 C 1.890625 -6.972656 1.820312 -6.804688 1.6875 -6.671875 C 1.550781 -6.535156 1.390625 -6.46875 1.203125 -6.46875 Z M 1.203125 -6.46875 "/></g></g></g><g fill="#000000" fill-opacity="1"><g transform="translate(93.784646, 44.669832)"><g><path d="M 1.734375 -0.953125 L 4.65625 -0.953125 L 4.65625 0 L 0.234375 0 L 0.234375 -0.765625 L 3.125 -4.34375 L 0.46875 -4.34375 L 0.46875 -5.3125 L 4.609375 -5.3125 L 4.609375 -4.5 Z M 1.734375 -0.953125 "/></g></g></g><g fill="#000000" fill-opacity="1"><g transform="translate(98.789558, 44.669832)"><g><path d="M 3.140625 0.140625 C 2.753906 0.140625 2.390625 0.0664062 2.046875 -0.078125 C 1.710938 -0.222656 1.421875 -0.421875 1.171875 -0.671875 C 0.921875 -0.921875 0.722656 -1.21875 0.578125 -1.5625 C 0.429688 -1.90625 0.359375 -2.269531 0.359375 -2.65625 C 0.359375 -3.039062 0.425781 -3.398438 0.5625 -3.734375 C 0.707031 -4.078125 0.894531 -4.375 1.125 -4.625 C 1.351562 -4.875 1.625 -5.070312 1.9375 -5.21875 C 2.25 -5.363281 2.582031 -5.4375 2.9375 -5.4375 C 3.300781 -5.4375 3.632812 -5.375 3.9375 -5.25 C 4.25 -5.125 4.515625 -4.925781 4.734375 -4.65625 C 4.960938 -4.394531 5.140625 -4.054688 5.265625 -3.640625 C 5.390625 -3.234375 5.453125 -2.742188 5.453125 -2.171875 L 1.515625 -2.171875 C 1.566406 -1.984375 1.644531 -1.804688 1.75 -1.640625 C 1.863281 -1.472656 1.992188 -1.328125 2.140625 -1.203125 C 2.296875 -1.078125 2.46875 -0.984375 2.65625 -0.921875 C 2.84375 -0.859375 3.039062 -0.828125 3.25 -0.828125 C 3.53125 -0.828125 3.789062 -0.875 4.03125 -0.96875 C 4.269531 -1.070312 4.472656 -1.210938 4.640625 -1.390625 L 5.3125 -0.71875 C 5.050781 -0.457031 4.734375 -0.25 4.359375 -0.09375 C 3.992188 0.0625 3.585938 0.140625 3.140625 0.140625 Z M 2.9375 -4.453125 C 2.769531 -4.453125 2.609375 -4.421875 2.453125 -4.359375 C 2.304688 -4.296875 2.164062 -4.203125 2.03125 -4.078125 C 1.90625 -3.960938 1.796875 -3.820312 1.703125 -3.65625 C 1.609375 -3.5 1.539062 -3.320312 1.5 -3.125 L 4.296875 -3.125 C 4.285156 -3.300781 4.242188 -3.472656 4.171875 -3.640625 C 4.109375 -3.804688 4.019531 -3.945312 3.90625 -4.0625 C 3.789062 -4.1875 3.648438 -4.28125 3.484375 -4.34375 C 3.328125 -4.414062 3.144531 -4.453125 2.9375 -4.453125 Z M 2.9375 -4.453125 "/></g></g></g><g fill="#000000" fill-opacity="1"><g transform="translate(104.67116, 44.669832)"><g><path d="M 3.828125 -4.328125 C 3.773438 -4.347656 3.722656 -4.367188 3.671875 -4.390625 C 3.628906 -4.410156 3.578125 -4.425781 3.515625 -4.4375 C 3.453125 -4.445312 3.390625 -4.453125 3.328125 -4.453125 C 3.109375 -4.453125 2.90625 -4.414062 2.71875 -4.34375 C 2.539062 -4.28125 2.382812 -4.1875 2.25 -4.0625 C 2.113281 -3.945312 2.003906 -3.8125 1.921875 -3.65625 C 1.847656 -3.5 1.8125 -3.332031 1.8125 -3.15625 L 1.8125 0 L 0.734375 0 L 0.734375 -5.3125 L 1.59375 -5.3125 L 1.8125 -4.71875 C 1.957031 -4.9375 2.148438 -5.109375 2.390625 -5.234375 C 2.628906 -5.367188 2.929688 -5.4375 3.296875 -5.4375 C 3.535156 -5.4375 3.804688 -5.40625 4.109375 -5.34375 Z M 3.828125 -4.328125 "/></g></g></g><g fill="#000000" fill-opacity="1"><g transform="translate(108.865958, 44.669832)"><g><path d="M 3.09375 -1.109375 C 3.15625 -1.171875 3.210938 -1.238281 3.265625 -1.3125 C 3.316406 -1.382812 3.34375 -1.46875 3.34375 -1.5625 C 3.34375 -1.675781 3.300781 -1.773438 3.21875 -1.859375 C 3.132812 -1.941406 3.03125 -2.007812 2.90625 -2.0625 C 2.789062 -2.125 2.664062 -2.164062 2.53125 -2.1875 C 2.394531 -2.21875 2.285156 -2.25 2.203125 -2.28125 C 1.953125 -2.332031 1.71875 -2.398438 1.5 -2.484375 C 1.289062 -2.578125 1.101562 -2.679688 0.9375 -2.796875 C 0.78125 -2.921875 0.65625 -3.066406 0.5625 -3.234375 C 0.476562 -3.398438 0.4375 -3.597656 0.4375 -3.828125 C 0.4375 -4.046875 0.488281 -4.25 0.59375 -4.4375 C 0.695312 -4.625 0.832031 -4.785156 1 -4.921875 C 1.175781 -5.066406 1.378906 -5.179688 1.609375 -5.265625 C 1.847656 -5.359375 2.097656 -5.40625 2.359375 -5.40625 C 2.585938 -5.40625 2.800781 -5.367188 3 -5.296875 C 3.207031 -5.234375 3.394531 -5.144531 3.5625 -5.03125 C 3.726562 -4.914062 3.867188 -4.773438 3.984375 -4.609375 C 4.097656 -4.453125 4.175781 -4.273438 4.21875 -4.078125 L 3.25 -3.84375 C 3.207031 -4.019531 3.109375 -4.164062 2.953125 -4.28125 C 2.804688 -4.394531 2.609375 -4.453125 2.359375 -4.453125 C 2.265625 -4.453125 2.171875 -4.4375 2.078125 -4.40625 C 1.984375 -4.382812 1.894531 -4.347656 1.8125 -4.296875 C 1.726562 -4.253906 1.65625 -4.191406 1.59375 -4.109375 C 1.539062 -4.035156 1.515625 -3.953125 1.515625 -3.859375 C 1.515625 -3.753906 1.546875 -3.664062 1.609375 -3.59375 C 1.671875 -3.519531 1.742188 -3.457031 1.828125 -3.40625 C 1.921875 -3.363281 2.019531 -3.328125 2.125 -3.296875 C 2.226562 -3.265625 2.328125 -3.238281 2.421875 -3.21875 C 2.804688 -3.125 3.128906 -3.019531 3.390625 -2.90625 C 3.648438 -2.789062 3.859375 -2.664062 4.015625 -2.53125 C 4.171875 -2.40625 4.28125 -2.257812 4.34375 -2.09375 C 4.40625 -1.9375 4.4375 -1.757812 4.4375 -1.5625 C 4.4375 -1.320312 4.378906 -1.097656 4.265625 -0.890625 C 4.160156 -0.691406 4.015625 -0.515625 3.828125 -0.359375 C 3.640625 -0.210938 3.414062 -0.09375 3.15625 0 C 2.894531 0.0820312 2.613281 0.125 2.3125 0.125 C 1.851562 0.125 1.441406 0.0078125 1.078125 -0.21875 C 0.722656 -0.445312 0.484375 -0.75 0.359375 -1.125 L 1.265625 -1.53125 C 1.378906 -1.269531 1.53125 -1.09375 1.71875 -1 C 1.90625 -0.90625 2.117188 -0.859375 2.359375 -0.859375 C 2.648438 -0.859375 2.894531 -0.941406 3.09375 -1.109375 Z M 3.09375 -1.109375 "/></g></g></g></svg>